<svg width="16" height="18" viewBox="0 0 16 18" fill="none" xmlns="http://www.w3.org/2000/svg">
<path fill-rule="evenodd" clip-rule="evenodd" d="M9.32873 0.515945C9.3873 0.568007 9.44276 0.623466 9.49482 0.682036L15.4948 7.43204C15.8202 7.79814 16 8.27094 16 8.76076V16.0004C16 17.1049 15.1046 18.0004 14 18.0004H10.002C10.0013 18.0004 10.0007 18.0004 10 18.0004H6C5.99934 18.0004 5.99868 18.0004 5.99803 18.0004H2C0.89543 18.0004 0 17.1049 0 16.0004V8.76076C0 8.27094 0.179757 7.79814 0.505181 7.43204L6.50518 0.682036C7.23902 -0.14353 8.50316 -0.217891 9.32873 0.515945ZM7 16.0004H9V12.0004H7V16.0004ZM11 16.0004V11.0004C11 10.4481 10.5523 10.0004 10 10.0004H6C5.44772 10.0004 5 10.4481 5 11.0004V16.0004H2V8.76076L8 2.01076L14 8.76076V16.0004H11Z" fill="#5A607F"/>
</svg>
